<svg viewBox="0 0 1200 630" fill="none" xmlns="http://www.w3.org/2000/svg">
  <rect width="1200" height="630" fill="#F9F8F5"/>
  <g transform="translate(250, 215)">
    <!-- Spiral sunburst pattern -->
    <g opacity="1">
      <line x1="100" y1="0" x2="100" y2="-80" stroke="#0D1F3C" stroke-width="3" stroke-linecap="round"/>
      <line x1="114" y1="4" x2="134" y2="-76" stroke="#0D1F3C" stroke-width="3" stroke-linecap="round"/>
      <line x1="127" y1="12" x2="167" y2="-68" stroke="#0D1F3C" stroke-width="3" stroke-linecap="round"/>
      <line x1="138" y1="23" x2="196" y2="-54" stroke="#0D1F3C" stroke-width="3" stroke-linecap="round"/>
      <line x1="148" y1="37" x2="221" y2="-34" stroke="#0D1F3C" stroke-width="3" stroke-linecap="round"/>
      <line x1="156" y1="52" x2="240" y2="-8" stroke="#0D1F3C" stroke-width="3" stroke-linecap="round"/>
      <line x1="162" y1="69" x2="252" y2="22" stroke="#0D1F3C" stroke-width="3" stroke-linecap="round"/>
      <line x1="165" y1="86" x2="256" y2="54" stroke="#0D1F3C" stroke-width="3" stroke-linecap="round"/>
      <line x1="165" y1="103" x2="252" y2="88" stroke="#0D1F3C" stroke-width="3" stroke-linecap="round"/>
      <line x1="162" y1="120" x2="240" y2="122" stroke="#0D1F3C" stroke-width="3" stroke-linecap="round"/>
      <line x1="156" y1="136" x2="221" y2="154" stroke="#0D1F3C" stroke-width="3" stroke-linecap="round"/>
      <line x1="148" y1="151" x2="196" y2="182" stroke="#0D1F3C" stroke-width="3" stroke-linecap="round"/>
      <line x1="138" y1="165" x2="167" y2="206" stroke="#0D1F3C" stroke-width="3" stroke-linecap="round"/>
      <line x1="127" y1="176" x2="134" y2="226" stroke="#0D1F3C" stroke-width="3" stroke-linecap="round"/>
      <line x1="114" y1="184" x2="100" y2="240" stroke="#0D1F3C" stroke-width="3" stroke-linecap="round"/>
      <line x1="100" y1="188" x2="66" y2="248" stroke="#0D1F3C" stroke-width="3" stroke-linecap="round"/>
      <line x1="86" y1="187" x2="32" y2="249" stroke="#0D1F3C" stroke-width="3" stroke-linecap="round"/>
      <line x1="73" y1="183" x2="0" y2="243" stroke="#0D1F3C" stroke-width="3" stroke-linecap="round"/>
      <line x1="62" y1="176" x2="-29" y2="229" stroke="#0D1F3C" stroke-width="3" stroke-linecap="round"/>
      <line x1="52" y1="165" x2="-54" y2="206" stroke="#0D1F3C" stroke-width="3" stroke-linecap="round"/>
      <line x1="44" y1="151" x2="-74" y2="175" stroke="#0D1F3C" stroke-width="3" stroke-linecap="round"/>
      <line x1="38" y1="136" x2="-88" y2="138" stroke="#0D1F3C" stroke-width="3" stroke-linecap="round"/>
      <line x1="35" y1="120" x2="-96" y2="96" stroke="#0D1F3C" stroke-width="3" stroke-linecap="round"/>
      <line x1="35" y1="103" x2="-96" y2="52" stroke="#0D1F3C" stroke-width="3" stroke-linecap="round"/>
      <line x1="38" y1="86" x2="-88" y2="8" stroke="#0D1F3C" stroke-width="3" stroke-linecap="round"/>
      <line x1="44" y1="69" x2="-74" y2="-35" stroke="#0D1F3C" stroke-width="3" stroke-linecap="round"/>
      <line x1="52" y1="52" x2="-54" y2="-74" stroke="#0D1F3C" stroke-width="3" stroke-linecap="round"/>
      <line x1="62" y1="37" x2="-29" y2="-108" stroke="#0D1F3C" stroke-width="3" stroke-linecap="round"/>
      <line x1="73" y1="23" x2="0" y2="-136" stroke="#0D1F3C" stroke-width="3" stroke-linecap="round"/>
      <line x1="86" y1="12" x2="32" y2="-158" stroke="#0D1F3C" stroke-width="3" stroke-linecap="round"/>
    </g>
    <!-- Center circle -->
    <circle cx="100" cy="100" r="50" fill="white" stroke="#0D1F3C" stroke-width="7"/>
    <!-- VALORIAN text -->
    <text x="200" y="120" font-family="Inter, sans-serif" font-size="88" font-weight="600" fill="#0D1F3C" letter-spacing="3">VALORIAN</text>
  </g>
</svg>
